<svg width="20" height="16" viewBox="0 0 20 16" fill="none" xmlns="http://www.w3.org/2000/svg">
<path d="M10 15V8M10 8L7.75 10.3333M10 8L12.25 10.3333M4.6 13.8333C2.61178 13.8333 1 12.1917 1 10.1667C1 8.498 2.09438 7.0897 3.59198 6.6457C3.65562 6.6268 3.7 6.5675 3.7 6.5C3.7 3.46243 6.11766 1 9.1 1C12.0823 1 14.5 3.46243 14.5 6.5C14.5 6.5582 14.5536 6.6014 14.6094 6.5887C14.8638 6.5306 15.1284 6.5 15.4 6.5C17.3882 6.5 19 8.1416 19 10.1667C19 12.1917 17.3882 13.8333 15.4 13.8333" stroke="#3B7DDD" stroke-width="1.5" stroke-linecap="round" stroke-linejoin="round"/>
</svg>
