<?xml version="1.0" encoding="utf-8"?>
<svg width="145" height="37" viewBox="0 0 145 37" fill="none" xmlns="http://www.w3.org/2000/svg">
<path d="M55.5606 7C57.2235 7 58.667 7.2892 59.8913 7.86759C61.1339 8.44598 62.0841 9.27501 62.7419 10.3547C63.3997 11.4343 63.7286 12.7164 63.7286 14.201C63.7286 15.6662 63.3997 16.9484 62.7419 18.0473C62.0841 19.127 61.1339 19.956 59.8913 20.5344C58.667 21.1128 57.2235 21.402 55.5606 21.402H51.23V27.2437H47.6667V7H55.5606ZM55.3962 18.2208C56.9494 18.2208 58.128 17.8738 58.932 17.1797C59.736 16.4856 60.138 15.4927 60.138 14.201C60.138 12.9092 59.736 11.9163 58.932 11.2223C58.128 10.5282 56.9494 10.1812 55.3962 10.1812H51.23V18.2208H55.3962Z" fill="#273238"/>
<path d="M80.2528 19.609C80.2528 19.8596 80.2345 20.2163 80.198 20.679H68.7135C68.9145 21.8165 69.4352 22.7226 70.2758 23.3974C71.1346 24.0529 72.1944 24.3807 73.4553 24.3807C75.0633 24.3807 76.3881 23.8216 77.4296 22.7034L79.2661 24.9302C78.6082 25.7592 77.7768 26.3858 76.7718 26.8099C75.7668 27.2341 74.6339 27.4462 73.373 27.4462C71.765 27.4462 70.3489 27.1088 69.1246 26.434C67.9003 25.7592 66.9501 24.8241 66.274 23.6288C65.6162 22.4142 65.2873 21.0453 65.2873 19.5222C65.2873 18.0184 65.6071 16.6688 66.2466 15.4735C66.9044 14.2588 67.809 13.3141 68.9601 12.6393C70.1113 11.9645 71.4087 11.6271 72.8523 11.6271C74.2776 11.6271 75.5475 11.9645 76.6622 12.6393C77.7951 13.2948 78.6722 14.2299 79.2935 15.4445C79.933 16.6399 80.2528 18.028 80.2528 19.609ZM72.8523 14.5191C71.7559 14.5191 70.824 14.8661 70.0565 15.5602C69.3073 16.235 68.8505 17.1412 68.6861 18.2787H76.9911C76.8449 17.1604 76.3972 16.2543 75.648 15.5602C74.8988 14.8661 73.9669 14.5191 72.8523 14.5191Z" fill="#273238"/>
<path d="M91.2458 11.6271C92.6711 11.6271 93.9411 11.9549 95.0557 12.6104C96.1887 13.2659 97.0749 14.1913 97.7145 15.3867C98.354 16.582 98.6738 17.9605 98.6738 19.5222C98.6738 21.0839 98.354 22.472 97.7145 23.6866C97.0749 24.882 96.1887 25.8074 95.0557 26.4629C93.9411 27.1184 92.6711 27.4462 91.2458 27.4462C89.2724 27.4462 87.71 26.7521 86.5589 25.364V32.8542H83.1327V11.8007H86.3944V13.825C86.9609 13.0924 87.6552 12.5429 88.4775 12.1766C89.3181 11.8103 90.2408 11.6271 91.2458 11.6271ZM90.8621 24.3518C92.123 24.3518 93.1554 23.9083 93.9594 23.0215C94.7817 22.1346 95.1928 20.9682 95.1928 19.5222C95.1928 18.0762 94.7817 16.9098 93.9594 16.0229C93.1554 15.1361 92.123 14.6926 90.8621 14.6926C90.0398 14.6926 89.2998 14.8951 88.642 15.2999C87.9841 15.6855 87.4634 16.2446 87.0796 16.9773C86.6959 17.7099 86.504 18.5582 86.504 19.5222C86.504 20.4862 86.6959 21.3345 87.0796 22.0671C87.4634 22.7998 87.9841 23.3685 88.642 23.7734C89.2998 24.159 90.0398 24.3518 90.8621 24.3518Z" fill="#273238"/>
<path d="M109.625 11.6271C111.05 11.6271 112.32 11.9549 113.435 12.6104C114.568 13.2659 115.454 14.1913 116.094 15.3867C116.733 16.582 117.053 17.9605 117.053 19.5222C117.053 21.0839 116.733 22.472 116.094 23.6866C115.454 24.882 114.568 25.8074 113.435 26.4629C112.32 27.1184 111.05 27.4462 109.625 27.4462C107.652 27.4462 106.089 26.7521 104.938 25.364V32.8542H101.512V11.8007H104.774V13.825C105.34 13.0924 106.034 12.5429 106.857 12.1766C107.697 11.8103 108.62 11.6271 109.625 11.6271ZM109.241 24.3518C110.502 24.3518 111.535 23.9083 112.339 23.0215C113.161 22.1346 113.572 20.9682 113.572 19.5222C113.572 18.0762 113.161 16.9098 112.339 16.0229C111.535 15.1361 110.502 14.6926 109.241 14.6926C108.419 14.6926 107.679 14.8951 107.021 15.2999C106.363 15.6855 105.843 16.2446 105.459 16.9773C105.075 17.7099 104.883 18.5582 104.883 19.5222C104.883 20.4862 105.075 21.3345 105.459 22.0671C105.843 22.7998 106.363 23.3685 107.021 23.7734C107.679 24.159 108.419 24.3518 109.241 24.3518Z" fill="#273238"/>
<path d="M133.651 19.609C133.651 19.8596 133.632 20.2163 133.596 20.679H122.111C122.312 21.8165 122.833 22.7226 123.674 23.3974C124.532 24.0529 125.592 24.3807 126.853 24.3807C128.461 24.3807 129.786 23.8216 130.827 22.7034L132.664 24.9302C132.006 25.7592 131.175 26.3858 130.17 26.8099C129.165 27.2341 128.032 27.4462 126.771 27.4462C125.163 27.4462 123.747 27.1088 122.522 26.434C121.298 25.7592 120.348 24.8241 119.672 23.6288C119.014 22.4142 118.685 21.0453 118.685 19.5222C118.685 18.0184 119.005 16.6688 119.644 15.4735C120.302 14.2588 121.207 13.3141 122.358 12.6393C123.509 11.9645 124.807 11.6271 126.25 11.6271C127.675 11.6271 128.945 11.9645 130.06 12.6393C131.193 13.2948 132.07 14.2299 132.691 15.4445C133.331 16.6399 133.651 18.028 133.651 19.609ZM126.25 14.5191C125.154 14.5191 124.222 14.8661 123.454 15.5602C122.705 16.235 122.248 17.1412 122.084 18.2787H130.389C130.243 17.1604 129.795 16.2543 129.046 15.5602C128.297 14.8661 127.365 14.5191 126.25 14.5191Z" fill="#273238"/>
<path d="M139.792 14.0564C140.779 12.4369 142.515 11.6271 145 11.6271V15.0686C144.708 15.0107 144.443 14.9818 144.205 14.9818C142.871 14.9818 141.83 15.3963 141.08 16.2254C140.331 17.0351 139.957 18.2112 139.957 19.7536V27.2437H136.531V11.8007H139.792V14.0564Z" fill="#273238"/>
<circle cx="23.5" cy="3.5" r="3.5" fill="#00BEA4"/>
<circle cx="13.5" cy="3.5" r="3.5" fill="#00BEA4"/>
<circle cx="3.5" cy="13.5" r="3.5" fill="#00BEA4"/>
<circle cx="3.5" cy="23.5" r="3.5" fill="#00BEA4"/>
<circle cx="13.5" cy="13.5" r="3.5" fill="#00BEA4"/>
<circle cx="13.5" cy="23.5" r="3.5" fill="#00BEA4"/>
<circle cx="13.5" cy="33.5" r="3.5" fill="#00BEA4"/>
<circle cx="23.5" cy="13.5" r="3.5" fill="#253138"/>
<circle cx="23.5" cy="23.5" r="3.5" fill="#253138"/>
<circle cx="23.5" cy="33.5" r="3.5" fill="#253138"/>
<circle cx="33.5" cy="13.5" r="3.5" fill="#253138"/>
<circle cx="33.5" cy="23.5" r="3.5" fill="#253138"/>
</svg>
